<?xml version="1.0" encoding="UTF-8" standalone="no"?>
<!DOCTYPE svg PUBLIC "-//W3C//DTD SVG 1.1//EN"
 "http://www.w3.org/Graphics/SVG/1.1/DTD/svg11.dtd">
<!-- Generated by graphviz version 2.42.4 (0)
 -->
<!-- Title: glaces Pages: 1 -->
<svg width="703pt" height="160pt"
 viewBox="0.00 0.00 703.00 160.00" xmlns="http://www.w3.org/2000/svg" xmlns:xlink="http://www.w3.org/1999/xlink">
<g id="graph0" class="graph" transform="scale(1 1) rotate(0) translate(4 156)">
<title>glaces</title>
<!-- Serie -->
<g id="node1" class="node">
<title>Serie</title>
<path fill="#fffdf7" stroke="#6b4a2b" d="M407,-95C407,-95 258,-95 258,-95 252,-95 246,-89 246,-83 246,-83 246,-69 246,-69 246,-63 252,-57 258,-57 258,-57 407,-57 407,-57 413,-57 419,-63 419,-69 419,-69 419,-83 419,-83 419,-89 413,-95 407,-95"/>
<text text-anchor="middle" x="332.5" y="-79.8" font-family="Arial" font-size="14.00">La Compagnie des glaces</text>
<text text-anchor="middle" x="332.5" y="-64.8" font-family="Arial" font-size="14.00">(schema:BookSeries)</text>
</g>
<!-- Auteur -->
<g id="node2" class="node">
<title>Auteur</title>
<path fill="#fffdf7" stroke="#6b4a2b" d="M683,-95C683,-95 558,-95 558,-95 552,-95 546,-89 546,-83 546,-83 546,-69 546,-69 546,-63 552,-57 558,-57 558,-57 683,-57 683,-57 689,-57 695,-63 695,-69 695,-69 695,-83 695,-83 695,-89 689,-95 683,-95"/>
<text text-anchor="middle" x="620.5" y="-79.8" font-family="Arial" font-size="14.00">Georges&#45;Jean Arnaud</text>
<text text-anchor="middle" x="620.5" y="-64.8" font-family="Arial" font-size="14.00">(schema:Person)</text>
</g>
<!-- Serie&#45;&gt;Auteur -->
<g id="edge1" class="edge">
<title>Serie&#45;&gt;Auteur</title>
<path fill="none" stroke="#2f6b3f" d="M419.31,-76C456.16,-76 499.07,-76 535.69,-76"/>
<polygon fill="#2f6b3f" stroke="#2f6b3f" points="535.85,-79.5 545.84,-76 535.84,-72.5 535.85,-79.5"/>
<text text-anchor="middle" x="482.5" y="-79.8" font-family="Arial" font-size="14.00">schema:author</text>
</g>
<!-- Integrale1 -->
<g id="node3" class="node">
<title>Integrale1</title>
<path fill="#fffdf7" stroke="#6b4a2b" d="M96,-128C96,-128 12,-128 12,-128 6,-128 0,-122 0,-116 0,-116 0,-102 0,-102 0,-96 6,-90 12,-90 12,-90 96,-90 96,-90 102,-90 108,-96 108,-102 108,-102 108,-116 108,-116 108,-122 102,-128 96,-128"/>
<text text-anchor="middle" x="54" y="-112.8" font-family="Arial" font-size="14.00">Intégrale 1</text>
<text text-anchor="middle" x="54" y="-97.8" font-family="Arial" font-size="14.00">(schema:Book)</text>
</g>
<!-- Integrale1&#45;&gt;Serie -->
<g id="edge2" class="edge">
<title>Integrale1&#45;&gt;Serie</title>
<path fill="none" stroke="#2f6b3f" d="M108.04,-98.79C114.08,-97.77 120.17,-96.82 126,-96 161.7,-91 201.07,-86.85 235.71,-83.64"/>
<polygon fill="#2f6b3f" stroke="#2f6b3f" points="236.18,-87.11 245.82,-82.72 235.55,-80.14 236.18,-87.11"/>
<text text-anchor="middle" x="177" y="-99.8" font-family="Arial" font-size="14.00">schema:isPartOf</text>
</g>
<!-- Rail -->
<g id="node6" class="node">
<title>Rail</title>
<path fill="#fffdf7" stroke="#6b4a2b" d="M398,-152C398,-152 267,-152 267,-152 261,-152 255,-146 255,-140 255,-140 255,-126 255,-126 255,-120 261,-114 267,-114 267,-114 398,-114 398,-114 404,-114 410,-120 410,-126 410,-126 410,-140 410,-140 410,-146 404,-152 398,-152"/>
<text text-anchor="middle" x="332.5" y="-136.8" font-family="Arial" font-size="14.00">Rail</text>
<text text-anchor="middle" x="332.5" y="-121.8" font-family="Arial" font-size="14.00">(schema:DefinedTerm)</text>
</g>
<!-- Integrale1&#45;&gt;Rail -->
<g id="edge5" class="edge">
<title>Integrale1&#45;&gt;Rail</title>
<path fill="none" stroke="#2f6b3f" d="M108.31,-113.63C146.97,-116.98 200.11,-121.6 244.83,-125.48"/>
<polygon fill="#2f6b3f" stroke="#2f6b3f" points="244.56,-128.97 254.82,-126.34 245.16,-121.99 244.56,-128.97"/>
<text text-anchor="middle" x="177" y="-126.8" font-family="Arial" font-size="14.00">dcterms:subject</text>
</g>
<!-- Integrale2 -->
<g id="node4" class="node">
<title>Integrale2</title>
<path fill="#fffdf7" stroke="#6b4a2b" d="M96,-62C96,-62 12,-62 12,-62 6,-62 0,-56 0,-50 0,-50 0,-36 0,-36 0,-30 6,-24 12,-24 12,-24 96,-24 96,-24 102,-24 108,-30 108,-36 108,-36 108,-50 108,-50 108,-56 102,-62 96,-62"/>
<text text-anchor="middle" x="54" y="-46.8" font-family="Arial" font-size="14.00">Intégrale 2</text>
<text text-anchor="middle" x="54" y="-31.8" font-family="Arial" font-size="14.00">(schema:Book)</text>
</g>
<!-- Integrale2&#45;&gt;Serie -->
<g id="edge3" class="edge">
<title>Integrale2&#45;&gt;Serie</title>
<path fill="none" stroke="#2f6b3f" d="M108.31,-49.36C144.41,-53.67 193.13,-59.49 235.84,-64.58"/>
<polygon fill="#2f6b3f" stroke="#2f6b3f" points="235.65,-68.08 245.99,-65.79 236.48,-61.13 235.65,-68.08"/>
<text text-anchor="middle" x="177" y="-67.8" font-family="Arial" font-size="14.00">schema:isPartOf</text>
</g>
<!-- Banquise -->
<g id="node5" class="node">
<title>Banquise</title>
<path fill="#fffdf7" stroke="#6b4a2b" d="M398,-38C398,-38 267,-38 267,-38 261,-38 255,-32 255,-26 255,-26 255,-12 255,-12 255,-6 261,0 267,0 267,0 398,0 398,0 404,0 410,-6 410,-12 410,-12 410,-26 410,-26 410,-32 404,-38 398,-38"/>
<text text-anchor="middle" x="332.5" y="-22.8" font-family="Arial" font-size="14.00">Banquise</text>
<text text-anchor="middle" x="332.5" y="-7.8" font-family="Arial" font-size="14.00">(schema:DefinedTerm)</text>
</g>
<!-- Integrale2&#45;&gt;Banquise -->
<g id="edge4" class="edge">
<title>Integrale2&#45;&gt;Banquise</title>
<path fill="none" stroke="#2f6b3f" d="M107.68,-23.97C113.79,-22.35 119.99,-20.96 126,-20 164.64,-13.8 207.89,-12.73 244.72,-13.53"/>
<polygon fill="#2f6b3f" stroke="#2f6b3f" points="244.83,-17.04 254.92,-13.8 245.02,-10.04 244.83,-17.04"/>
<text text-anchor="middle" x="177" y="-23.8" font-family="Arial" font-size="14.00">dcterms:subject</text>
</g>
</g>
</svg>
